<svg width="30" height="28" viewBox="0 0 30 28" fill="none" xmlns="http://www.w3.org/2000/svg">
    <path
        d="M28.9319 4.37873L25.695 1.08244C25.0111 0.389194 24.0855 0 23.1205 0C22.1556 0 21.2299 0.389194 20.546 1.08244L6.24879 15.6166C5.43841 16.4588 4.98898 17.5939 4.99903 18.7729V20.3638C4.99903 21.0389 5.26237 21.6863 5.73112 22.1637C6.19988 22.641 6.83564 22.9092 7.49855 22.9092H9.07325C10.2268 22.9161 11.3362 22.4586 12.1601 21.6365L24.3703 9.16407C24.4289 9.10491 24.4753 9.03453 24.5071 8.95699C24.5388 8.87944 24.5551 8.79627 24.5551 8.71226C24.5551 8.62826 24.5388 8.54508 24.5071 8.46754C24.4753 8.38999 24.4289 8.31961 24.3703 8.26046L23.483 7.35684C23.4249 7.2972 23.3558 7.24986 23.2796 7.21755C23.2035 7.18524 23.1218 7.16861 23.0393 7.16861C22.9568 7.16861 22.8751 7.18524 22.799 7.21755C22.7228 7.24986 22.6537 7.2972 22.5956 7.35684L10.398 19.8038C10.0468 20.1619 9.57026 20.3634 9.07325 20.3638H7.49855V18.7602C7.49899 18.2541 7.69678 17.7688 8.04844 17.4112L22.3082 2.87694C22.5232 2.66164 22.8127 2.54099 23.1143 2.54099C23.4158 2.54099 23.7053 2.66164 23.9204 2.87694L27.1572 6.17323C27.3687 6.39222 27.4871 6.68702 27.4871 6.99412C27.4871 7.30122 27.3687 7.59603 27.1572 7.81501L10.7604 24.5255C10.4697 24.8208 10.1247 25.0548 9.74518 25.2143C9.36562 25.3737 8.95892 25.4554 8.54835 25.4546H3.74928C3.41782 25.4546 3.09994 25.3205 2.86556 25.0818C2.63119 24.8432 2.49952 24.5194 2.49952 24.1819V19.2947C2.49878 18.8766 2.57898 18.4625 2.73552 18.0759C2.89207 17.6894 3.12189 17.3381 3.41184 17.0421L17.7591 2.4315C17.8176 2.37234 17.8641 2.30196 17.8958 2.22442C17.9276 2.14687 17.9439 2.0637 17.9439 1.97969C17.9439 1.89569 17.9276 1.81251 17.8958 1.73497C17.8641 1.65742 17.8176 1.58704 17.7591 1.52788L16.8717 0.636995C16.8136 0.577351 16.7445 0.53001 16.6684 0.497703C16.5922 0.465397 16.5106 0.448764 16.4281 0.448764C16.3456 0.448764 16.2639 0.465397 16.1878 0.497703C16.1116 0.53001 16.0425 0.577351 15.9844 0.636995L1.64968 15.273C0.60079 16.3398 0.00791401 17.7852 0 19.2947L0 24.1819C0 25.1945 0.395012 26.1657 1.09814 26.8817C1.80126 27.5977 2.75491 28 3.74928 28H8.54835C10.0307 27.9919 11.45 27.3882 12.4976 26.32L28.9319 9.62224C29.2705 9.27823 29.5391 8.86958 29.7224 8.4197C29.9057 7.96982 30 7.48754 30 7.00048C30 6.51342 29.9057 6.03115 29.7224 5.58127C29.5391 5.13139 29.2705 4.72274 28.9319 4.37873Z"
        fill="black" />
</svg>